# xmcd
#
# Track frame offsets:
#	187
#	20817
#	40325
#	65805
#	83892
#	97017
#	120870
#	140930
#	167507
#	176507
#	192872
#	202712
#	221450
#	249917
#
# Disc length: 3632 seconds
#
# Revision: 1
# Processed by: cddbd v1.5.1PL0 Copyright (c) Steve Scherf et al.
# Submitted via: CDex 1.50Beta5
#
DISCID=c10e2e0e
DTITLE=Date of Birth - EYES
DYEAR=1900
DGENRE=Soundtrack
TTITLE0=MiMi小林泉美/1
TTITLE1=Date of Birth/思い出の瞳
TTITLE2=高橋洋子/KISS
TTITLE3=喜多山信/Pillow March
TTITLE4=並河祥太/もう一度逢いたくて
TTITLE5=MiMi小林泉美/Walk&Walk
TTITLE6=喜多山信/雪どけ
TTITLE7=MiMi小林泉美/8
TTITLE8=喜多山信/Solo
TTITLE9=高橋洋子/もう一度逢いたくて
TTITLE10=喜多山信/ウルトラ7th
TTITLE11=MiMi小林泉美/12
TTITLE12=MiMi小林泉美/13
TTITLE13=RABBIT/Thank you my Girl
EXTD=
EXTT0=
EXTT1=
EXTT2=
EXTT3=
EXTT4=
EXTT5=
EXTT6=
EXTT7=
EXTT8=
EXTT9=
EXTT10=
EXTT11=
EXTT12=
EXTT13=
PLAYORDER=
